0
SECTION
2
HEADER
9
$INSUNITS
70
4
9
$ACADVER
1
AC1014
9
$HANDSEED
5
FFFF
0
ENDSEC
0
SECTION
2
TABLES
0
TABLE
2
VPORT
5
8
100
AcDbSymbolTable
0
ENDTAB
0
TABLE
2
LTYPE
5
5
100
AcDbSymbolTable
0
LTYPE
5
14
100
AcDbSymbolTableRecord
100
AcDbLinetypeTableRecord
2
BYBLOCK
70
0
0
LTYPE
5
15
100
AcDbSymbolTableRecord
100
AcDbLinetypeTableRecord
2
BYLAYER
70
0
0
ENDTAB
0
TABLE
2
LAYER
5
2
100
AcDbSymbolTable
70
2
0
LAYER
5
50
100
AcDbSymbolTableRecord
100
AcDbLayerTableRecord
2
0
70
0
6
CONTINUOUS
0
ENDTAB
0
TABLE
2
STYLE
5
3
100
AcDbSymbolTable
70
1
0
STYLE
5
11
100
AcDbSymbolTableRecord
100
AcDbTextStyleTableRecord
2
STANDARD
70
0
0
ENDTAB
0
TABLE
2
VIEW
5
6
100
AcDbSymbolTable
70
0
0
ENDTAB
0
TABLE
2
UCS
5
7
100
AcDbSymbolTable
70
0
0
ENDTAB
0
TABLE
2
APPID
5
9
100
AcDbSymbolTable
70
2
0
APPID
5
12
100
AcDbSymbolTableRecord
100
AcDbRegAppTableRecord
2
ACAD
70
0
0
ENDTAB
0
TABLE
2
DIMSTYLE
5
A
100
AcDbSymbolTable
70
1
0
ENDTAB
0
TABLE
2
BLOCK_RECORD
5
1
100
AcDbSymbolTable
70
1
0
BLOCK_RECORD
5
1F
100
AcDbSymbolTableRecord
100
AcDbBlockTableRecord
2
*MODEL_SPACE
0
BLOCK_RECORD
5
1B
100
AcDbSymbolTableRecord
100
AcDbBlockTableRecord
2
*PAPER_SPACE
0
ENDTAB
0
ENDSEC
0
SECTION
2
BLOCKS
0
BLOCK
5
20
100
AcDbEntity
100
AcDbBlockBegin
2
*MODEL_SPACE
0
ENDBLK
5
21
100
AcDbEntity
100
AcDbBlockEnd
0
BLOCK
5
1C
100
AcDbEntity
100
AcDbBlockBegin
2
*PAPER_SPACE
0
ENDBLK
5
1D
100
AcDbEntity
100
AcDbBlockEnd
0
ENDSEC
0
SECTION
2
ENTITIES
0
LWPOLYLINE
5
100
100
AcDbEntity
8
0
100
AcDbPolyline
90
6
70
1
43
0.0
10
-6.4646499928518963
20
49.216074636884663
10
-7.0736989246522741
20
50.505913082777241
10
-8.4952562514732755
20
50.623380458636632
10
-9.3077646464939079
20
49.451009388603453
10
-8.6987157146935381
20
48.161170942710861
10
-7.2771583878725332
20
48.04370356685147
0
LWPOLYLINE
5
101
100
AcDbEntity
8
0
100
AcDbPolyline
90
6
70
1
43
0.0
10
-4.1496553819631448
20
44.861555584520545
10
-1.6730043263272565
20
45.04239692607733
10
-0.59129199435195012
20
47.277660327345934
10
-1.9862307180125294
20
49.332082387057774
10
-4.4628817736484123
20
49.151241045500988
10
-5.5445941056237213
20
46.915977644232363
0
LWPOLYLINE
5
102
100
AcDbEntity
8
0
100
AcDbPolyline
90
6
70
1
43
0.0
10
0.16418656856088787
20
29.776343957667883
10
-2.6024326785857497
20
30.364407032291474
10
-4.4950198638106871
20
28.262476018975313
10
-3.6209878018889832
20
25.572481931035547
10
-0.85436855474234963
20
24.984418856411949
10
1.0382186304825869
20
27.086349869728114
0
LWPOLYLINE
5
103
100
AcDbEntity
8
0
100
AcDbPolyline
90
6
70
1
43
0.0
10
-4.5564174689644341
20
30.468655927301242
10
-3.4224428558513509
20
34.432757601508669
10
-6.2884683023428583
20
37.396859260814935
10
-10.288468361947455
20
36.396859245913788
10
-11.422442975060545
20
32.432757571706368
10
-8.5564175285690318
20
29.468655912400088
0
LWPOLYLINE
5
104
100
AcDbEntity
8
0
100
AcDbPolyline
90
6
70
1
43
0.0
10
-9.8772732561298238
20
40.876488557907031
10
-7.8772732263275183
20
39.876488543005877
10
-6.011247794737149
20
41.108539368933734
10
-6.145222392949087
20
43.340590209762723
10
-8.1452224227513952
20
44.340590224663885
10
-10.011247854341763
20
43.108539398736028
0
LWPOLYLINE
5
105
100
AcDbEntity
8
0
100
AcDbPolyline
90
6
70
1
43
0.0
10
-4.1330988781152174
20
39.243655834371708
10
-3.259066816193517
20
36.553661746431956
10
-0.49244756904689768
20
35.965598671808358
10
1.4001396161780288
20
38.067529685124512
10
0.52610755425633315
20
40.757523773064264
10
-2.2405116928902906
20
41.345586847687855
0
LWPOLYLINE
5
106
100
AcDbEntity
8
0
100
AcDbPolyline
90
6
70
1
43
0.0
10
-4.5109569550433992
20
51.601145268414015
10
-3.5493944572072387
20
51.722735101142675
10
-3.1739130922740797
20
52.61626756795954
10
-3.7599942251770817
20
53.388210202047745
10
-4.7215567230132383
20
53.266620369319078
10
-5.0970380879463963
20
52.373087902502213
0
LWPOLYLINE
5
107
100
AcDbEntity
8
0
100
AcDbPolyline
90
6
70
1
43
0.0
10
-2.1661203993426312
20
18.083799564597133
10
-1.7377324404423966
20
22.184590252172942
10
-5.0749273720355781
20
24.605980451043813
10
-8.8405102625290031
20
22.926579962338881
10
-9.2688982214292448
20
18.825789274763068
10
-5.9317032898360589
20
16.404399075892194
0
CIRCLE
5
108
100
AcDbEntity
8
0
100
AcDbCircle
10
-5.000000074505806
20
-7.0000001043081284
30
0
40
1.4000000000000001
0
LWPOLYLINE
5
109
100
AcDbEntity
8
0
100
AcDbPolyline
90
6
70
1
43
0.0
10
-8.8079612366108471
20
10.472024643334255
10
-6.2043803018491186
20
11.577179182104071
10
-5.8596817401505854
20
14.384523681801472
10
-8.118564113213786
20
16.086713642729045
10
-10.722145047975511
20
14.981559103959237
10
-11.06684360967404
20
12.174214604261833
0
LWPOLYLINE
5
110
100
AcDbEntity
8
0
100
AcDbPolyline
90
2
70
1
43
0.0
10
-3.4815773708418929
20
-16.221791641125066
42
-1.0261264189909971
10
-6.5184227781697217
20
-16.221791641125058
0
LWPOLYLINE
5
111
100
AcDbEntity
8
0
100
AcDbPolyline
90
6
70
1
43
0.0
10
-6.9808160561701991
20
0.84452489182487156
10
-6.1538639837015889
20
3.5493632434196964
10
-8.0828466730788371
20
5.6179439216871163
10
-10.838781434924687
20
4.9816862483597024
10
-11.665733507393295
20
2.2768478967648775
10
-9.736750818016052
20
0.20826721849745766
0
LWPOLYLINE
5
112
100
AcDbEntity
8
0
100
AcDbPolyline
90
6
70
1
43
0.0
10
-3.9544068439675906
20
3.8165936842670334
10
0.045593215637027562
20
4.8165936991681946
10
1.1795678287501143
20
8.7806953733756377
10
-1.6864576177414081
20
11.744797032681923
10
-5.6864576773460263
20
10.744797017780767
10
-6.8204322904591175
20
6.7806953435733242
0
LWPOLYLINE
5
113
100
AcDbEntity
8
0
100
AcDbPolyline
90
16
70
1
43
0.0
10
7.4505805663076581e-08
20
64.999999776482582
42
-0.41421356237309531
10
5.000000074505806
20
59.999999776482582
10
5.0000000745058051
20
-10.000000223517418
42
-0.41421356237309515
10
7.4505807079461306e-08
20
-15.000000223517418
10
-2.0000000298023224
20
-15.000000223517418
10
-2.0000000298023219
20
-16.500000245869156
42
-0.92497799168929096
10
-8.0000001192092896
20
-16.50000024586916
10
-8.0000001192092896
20
-15.000000223517418
10
-9.9999999254941958
20
-15.000000223517418
42
-0.41421356237309537
10
-14.999999925494192
20
-10.000000223517418
10
-14.999999925494201
20
59.999999776482582
42
-0.41421356237309537
10
-9.9999999254941958
20
64.999999776482582
10
-7.1780312363063352
20
65.008848572885981
10
-7.1780312363063352
20
62.173384952318557
10
-3.1006463145928844
20
62.173384952318557
10
-3.1006463145928844
20
65.008848572885981
0
ENDSEC
0
SECTION
2
OBJECTS
0
DICTIONARY
5
C
100
AcDbDictionary
3
ACAD_GROUP
350
D
3
ACAD_MLINESTYLE
350
17
0
DICTIONARY
5
D
100
AcDbDictionary
0
DICTIONARY
5
1A
330
C
100
AcDbDictionary
0
DICTIONARY
5
17
100
AcDbDictionary
0
ENDSEC
0
EOF
