0
SECTION
2
HEADER
9
$INSUNITS
70
4
9
$ACADVER
1
AC1014
9
$HANDSEED
5
FFFF
0
ENDSEC
0
SECTION
2
TABLES
0
TABLE
2
VPORT
5
8
100
AcDbSymbolTable
0
ENDTAB
0
TABLE
2
LTYPE
5
5
100
AcDbSymbolTable
0
LTYPE
5
14
100
AcDbSymbolTableRecord
100
AcDbLinetypeTableRecord
2
BYBLOCK
70
0
0
LTYPE
5
15
100
AcDbSymbolTableRecord
100
AcDbLinetypeTableRecord
2
BYLAYER
70
0
0
ENDTAB
0
TABLE
2
LAYER
5
2
100
AcDbSymbolTable
70
2
0
LAYER
5
50
100
AcDbSymbolTableRecord
100
AcDbLayerTableRecord
2
0
70
0
6
CONTINUOUS
0
ENDTAB
0
TABLE
2
STYLE
5
3
100
AcDbSymbolTable
70
1
0
STYLE
5
11
100
AcDbSymbolTableRecord
100
AcDbTextStyleTableRecord
2
STANDARD
70
0
0
ENDTAB
0
TABLE
2
VIEW
5
6
100
AcDbSymbolTable
70
0
0
ENDTAB
0
TABLE
2
UCS
5
7
100
AcDbSymbolTable
70
0
0
ENDTAB
0
TABLE
2
APPID
5
9
100
AcDbSymbolTable
70
2
0
APPID
5
12
100
AcDbSymbolTableRecord
100
AcDbRegAppTableRecord
2
ACAD
70
0
0
ENDTAB
0
TABLE
2
DIMSTYLE
5
A
100
AcDbSymbolTable
70
1
0
ENDTAB
0
TABLE
2
BLOCK_RECORD
5
1
100
AcDbSymbolTable
70
1
0
BLOCK_RECORD
5
1F
100
AcDbSymbolTableRecord
100
AcDbBlockTableRecord
2
*MODEL_SPACE
0
BLOCK_RECORD
5
1B
100
AcDbSymbolTableRecord
100
AcDbBlockTableRecord
2
*PAPER_SPACE
0
ENDTAB
0
ENDSEC
0
SECTION
2
BLOCKS
0
BLOCK
5
20
100
AcDbEntity
100
AcDbBlockBegin
2
*MODEL_SPACE
0
ENDBLK
5
21
100
AcDbEntity
100
AcDbBlockEnd
0
BLOCK
5
1C
100
AcDbEntity
100
AcDbBlockBegin
2
*PAPER_SPACE
0
ENDBLK
5
1D
100
AcDbEntity
100
AcDbBlockEnd
0
ENDSEC
0
SECTION
2
ENTITIES
0
LWPOLYLINE
5
100
100
AcDbEntity
8
0
100
AcDbPolyline
90
4
70
1
43
0.0
10
-40.897904017721309
20
-18.870591504693024
42
-1.68687822232728
10
-28.893459618642328
20
-25.801360709973167
42
0.053564102976727174
10
-29.702692405865573
20
-23.824116556561357
42
1.5804451959950552
10
-38.780943957770795
20
-18.58278557929772
42
0.053564102976727569
0
LWPOLYLINE
5
101
100
AcDbEntity
8
0
100
AcDbPolyline
90
6
70
1
43
0.0
10
-37.482738070744723
20
-10.113595890320717
42
-0.22547353496211939
10
-34.261329561054495
20
-2.1584831247637393
42
-1.7216165902746079
10
-30.500033999787345
20
0.013101880035595315
42
-0.22547353496211939
10
-21.999999999999993
20
-1.1746328973837774
42
-1.0605623801468793
10
-12.017261929255289
20
-18.465242434565752
42
-0.61721498719870727
10
-27.499999999999996
20
-27.404205427502674
42
-1.0605623801468811
0
CIRCLE
5
102
100
AcDbEntity
8
0
100
AcDbCircle
10
-33
20
0
30
0
40
0.99999999999999645
0
LWPOLYLINE
5
103
100
AcDbEntity
8
0
100
AcDbPolyline
90
4
70
1
43
0.0
10
-23.576818181818187
20
-15.705374331804352
42
-1.5764945436089193
10
-23.57681818181819
20
-22.399743434710942
42
0.055594298021514069
10
-23.070909090909097
20
-20.241320305498579
42
2.2467999389433295
10
-23.070909090909097
20
-17.863797461016727
42
0.055594298021514575
0
LWPOLYLINE
5
104
100
AcDbEntity
8
0
100
AcDbPolyline
90
2
70
1
43
0.0
10
-35.383555888014222
20
-26.584402039398963
42
-0.10898182292043515
10
-38.33098956653123
20
-24.882700411688596
42
-0.24360642770450167
0
LWPOLYLINE
5
105
100
AcDbEntity
8
0
100
AcDbPolyline
90
3
70
1
43
0.0
10
-18.883555888014229
20
-1.9944362854875126
42
-0.098960458744239546
10
-19.889662238195719
20
-3.0391568783303846
42
0.014965519074587173
10
-20.291363636363634
20
-2.5955102363486833
42
-0.048555840661165112
0
LWPOLYLINE
5
106
100
AcDbEntity
8
0
100
AcDbPolyline
90
4
70
1
43
0.0
10
-14.338788336876522
20
-1.9276503450628479
42
-0.19690379663020688
10
-17.893459618642336
20
-6.7488018267155292
42
0.053564102976727306
10
-18.702692405865573
20
-4.7715576733037128
42
0.17213515034026286
10
-16.432748968836218
20
-1.6265656937258401
42
-0.067248831508506232
0
LWPOLYLINE
5
107
100
AcDbEntity
8
0
100
AcDbPolyline
90
4
70
1
43
0.0
10
-30.83878833687654
20
-26.651187979823625
42
-0.067248831508506121
10
-32.932748968836222
20
-26.952272631160632
42
0.40111975371032416
10
-39.874978303891062
20
-22.944174655790608
42
-0.067248831508506232
10
-40.661211663123481
20
-20.980209228320497
42
-0.42320736951515914
0
LWPOLYLINE
5
108
100
AcDbEntity
8
0
100
AcDbPolyline
90
4
70
1
43
0.0
10
-25.791363636363648
20
-12.121789677977512
42
-1.6868782223272825
10
-25.791363636363634
20
-25.983328088537792
42
0.053564102976727306
10
-24.483636363636375
20
-24.293889860521265
42
1.5804451959950598
10
-24.483636363636371
20
-13.811227905994038
42
0.053564102976727437
0
LWPOLYLINE
5
109
100
AcDbEntity
8
0
100
AcDbPolyline
90
4
70
1
43
0.0
10
-36.687155943622471
20
-18.744531210134731
42
-1.5764945436089148
10
-30.889662238195719
20
-22.091715761588027
42
0.055594298021514575
10
-32.505956954754993
20
-20.574374072249078
42
2.2467999389433149
10
-34.564952136154119
20
-19.385612650008149
42
0.055594298021514069
0
LWPOLYLINE
5
110
100
AcDbEntity
8
0
100
AcDbPolyline
90
4
70
1
43
0.0
10
-14.389662238195717
20
-6.4871225632984428
42
-0.52306027685843681
10
-14.389662238195715
20
-12.565436319959204
42
0.055594298021514318
10
-16.005956954754982
20
-11.048094630620259
42
0.72673538991810338
10
-16.005956954754986
20
-8.0044642526373941
42
0.055594298021514318
0
LWPOLYLINE
5
111
100
AcDbEntity
8
0
100
AcDbPolyline
90
4
70
1
43
0.0
10
-31.187155943622468
20
-9.2182517685059153
42
-0.91994273601149257
10
-23.812844056377539
20
-9.2182517685059118
42
0.055594298021514318
10
-25.935047863845895
20
-9.859333208379331
42
1.235215903472306
10
-29.064952136154108
20
-9.8593332083793346
42
0.055594298021514575
0
LWPOLYLINE
5
112
100
AcDbEntity
8
0
100
AcDbPolyline
90
4
70
1
43
0.0
10
-12.393459618642328
20
-2.7774776149133
42
-0.56209379324574293
10
-12.393459618642332
20
-16.275081268344351
42
0.053564102976727437
10
-13.20269240586558
20
-14.297837114932531
42
0.52450218088483802
10
-13.202692405865582
20
-4.7547217683251191
42
0.053564102976727042
0
LWPOLYLINE
5
113
100
AcDbEntity
8
0
100
AcDbPolyline
90
4
70
1
43
0.0
10
-21.719056042229198
20
-9.0565061376689133
42
-0.053564102976727181
10
-19.602095982278698
20
-9.3443120630642085
42
0.97722542640650911
10
-35.397904017721295
20
-9.3443120630642049
42
-0.053564102976727292
10
-33.280943957770802
20
-9.0565061376689009
42
-0.92203396797769555
0
ENDSEC
0
SECTION
2
OBJECTS
0
DICTIONARY
5
C
100
AcDbDictionary
3
ACAD_GROUP
350
D
3
ACAD_MLINESTYLE
350
17
0
DICTIONARY
5
D
100
AcDbDictionary
0
DICTIONARY
5
1A
330
C
100
AcDbDictionary
0
DICTIONARY
5
17
100
AcDbDictionary
0
ENDSEC
0
EOF
