0
SECTION
2
HEADER
9
$INSUNITS
70
4
9
$ACADVER
1
AC1014
9
$HANDSEED
5
FFFF
0
ENDSEC
0
SECTION
2
TABLES
0
TABLE
2
VPORT
5
8
100
AcDbSymbolTable
0
ENDTAB
0
TABLE
2
LTYPE
5
5
100
AcDbSymbolTable
0
LTYPE
5
14
100
AcDbSymbolTableRecord
100
AcDbLinetypeTableRecord
2
BYBLOCK
70
0
0
LTYPE
5
15
100
AcDbSymbolTableRecord
100
AcDbLinetypeTableRecord
2
BYLAYER
70
0
0
ENDTAB
0
TABLE
2
LAYER
5
2
100
AcDbSymbolTable
70
2
0
LAYER
5
50
100
AcDbSymbolTableRecord
100
AcDbLayerTableRecord
2
0
70
0
6
CONTINUOUS
0
ENDTAB
0
TABLE
2
STYLE
5
3
100
AcDbSymbolTable
70
1
0
STYLE
5
11
100
AcDbSymbolTableRecord
100
AcDbTextStyleTableRecord
2
STANDARD
70
0
0
ENDTAB
0
TABLE
2
VIEW
5
6
100
AcDbSymbolTable
70
0
0
ENDTAB
0
TABLE
2
UCS
5
7
100
AcDbSymbolTable
70
0
0
ENDTAB
0
TABLE
2
APPID
5
9
100
AcDbSymbolTable
70
2
0
APPID
5
12
100
AcDbSymbolTableRecord
100
AcDbRegAppTableRecord
2
ACAD
70
0
0
ENDTAB
0
TABLE
2
DIMSTYLE
5
A
100
AcDbSymbolTable
70
1
0
ENDTAB
0
TABLE
2
BLOCK_RECORD
5
1
100
AcDbSymbolTable
70
1
0
BLOCK_RECORD
5
1F
100
AcDbSymbolTableRecord
100
AcDbBlockTableRecord
2
*MODEL_SPACE
0
BLOCK_RECORD
5
1B
100
AcDbSymbolTableRecord
100
AcDbBlockTableRecord
2
*PAPER_SPACE
0
ENDTAB
0
ENDSEC
0
SECTION
2
BLOCKS
0
BLOCK
5
20
100
AcDbEntity
100
AcDbBlockBegin
2
*MODEL_SPACE
0
ENDBLK
5
21
100
AcDbEntity
100
AcDbBlockEnd
0
BLOCK
5
1C
100
AcDbEntity
100
AcDbBlockBegin
2
*PAPER_SPACE
0
ENDBLK
5
1D
100
AcDbEntity
100
AcDbBlockEnd
0
ENDSEC
0
SECTION
2
ENTITIES
0
CIRCLE
5
100
100
AcDbEntity
8
0
100
AcDbCircle
10
-16.679491924311243
20
-19.444863728670924
30
0
40
0.74999999999999956
0
LWPOLYLINE
5
101
100
AcDbEntity
8
0
100
AcDbPolyline
90
4
70
1
43
0.0
10
-2.4002711531441494
20
5.219769118744245
42
-1.709700828530218
10
-6.9293009307724258
20
2.60493255746273
42
0.054048087752047468
10
-5.3735332977857215
20
3.0446713818664648
42
2.4565184222025755
10
-3.5589799626014411
20
4.0923042383940409
42
0.054048087752047468
0
LWPOLYLINE
5
102
100
AcDbEntity
8
0
100
AcDbPolyline
90
4
70
1
43
0.0
10
-21.855962512546519
20
-1.6885972859289695
42
-0.38778336716474049
10
-21.855962512546526
20
-7.756266442741973
42
0.063469890860276004
10
-20.929491924311229
20
-8.957700450859825
42
0.41319693527066853
10
-20.929491924311229
20
-0.48716327781111401
42
0.063469890860276781
0
LWPOLYLINE
5
103
100
AcDbEntity
8
0
100
AcDbPolyline
90
2
70
1
43
0.0
10
0.18806491097921069
20
-16.447788686547067
42
-0.11689566404829554
10
-2.2088134654840434
20
-17.831627062412917
42
-0.24441820664643613
0
LWPOLYLINE
5
104
100
AcDbEntity
8
0
100
AcDbPolyline
90
5
70
1
43
0.0
10
-16.67949192431124
20
-16.318916383027549
42
-0.063469890860274297
10
-17.605962512546533
20
-15.117482374909699
42
0.46990269980674187
10
-18.563860824435757
20
-8.2556209549956865
42
0.039922385152379218
10
-18.086421593493963
20
-7.1593055340360472
42
-0.010694362640261355
10
-17.870668394899472
20
-6.9219040392137146
42
-0.4890823204749204
0
LWPOLYLINE
5
105
100
AcDbEntity
8
0
100
AcDbPolyline
90
4
70
1
43
0.0
10
-10.545123024186713
20
-0.89440502282796375
42
-0.050638367563352417
10
-11.120281381243784
20
0.50745889647343945
42
0.27404531011689942
10
-14.179104910655544
20
-4.7905788678549053
42
-0.050638367563352972
10
-12.677475965363181
20
-4.5877486566145294
42
-0.2519704596721799
0
LWPOLYLINE
5
106
100
AcDbEntity
8
0
100
AcDbPolyline
90
3
70
1
43
0.0
10
1.9087433698064111
20
-10.699809420637344
42
-0.061099151187827556
10
2.0701210620330768
20
-12.151794800022619
42
0.01699595224187864
10
1.5706990692275711
20
-12.049796286133674
42
-0.11757549394069357
0
LWPOLYLINE
5
107
100
AcDbEntity
8
0
100
AcDbPolyline
90
2
70
1
43
0.0
10
4.438064910979219
20
-9.0865727543793362
42
-0.11689566404829589
10
2.0411865345159552
20
-10.470411130245189
42
-0.24441820664643729
0
LWPOLYLINE
5
108
100
AcDbEntity
8
0
100
AcDbPolyline
90
4
70
1
43
0.0
10
-18.222342112091532
20
4.2017577406539459
42
-0.063469890860277531
10
-17.645105034208562
20
5.6048218099837417
42
0.38778336716474127
10
-12.390349402649193
20
8.6386563883902951
42
-0.063469890860276296
10
-10.886641736530926
20
8.4370263271782981
42
-0.41319693527066897
0
LWPOLYLINE
5
109
100
AcDbEntity
8
0
100
AcDbPolyline
90
4
70
1
43
0.0
10
-15.488315453723075
20
-6.9219040392135671
42
-1.7549928774784518
10
-15.488315453723002
20
-17.245391553792679
42
0.050638367563352667
10
-14.561844865487705
20
-16.046357845731634
42
1.6736912009163951
10
-14.561844865487707
20
-8.1209377472747573
42
0.050638367563352119
0
LWPOLYLINE
5
110
100
AcDbEntity
8
0
100
AcDbPolyline
90
6
70
1
43
0.0
10
-15.243351262676704
20
2.6387840678322898
42
-0.10563162786601975
10
-12.360633329500699
20
1.4092449404244816
10
-12.399967386493403
20
1.4773735256036589
42
-0.038254089054749495
10
-11.40618558146315
20
2.0479778753254574
42
-0.039448372653644197
10
-11.406185581463149
20
3.2295902603390529
42
-0.039448372653643642
10
-12.429491924311229
20
3.8203964528458463
42
-0.10280471573715343
0
LWPOLYLINE
5
111
100
AcDbEntity
8
0
100
AcDbPolyline
90
5
70
1
43
0.0
10
-13.73870246737868
20
0.50745889647343778
42
-0.010694362640251585
10
-13.836421593493968
20
0.20191039813168499
42
0.039922385152379745
10
-14.547138983134765
20
-0.75972181510702841
42
0.25197045967218323
10
-18.811844865487704
20
-0.75972181510703063
42
0.050638367563352119
10
-19.738315453723018
20
0.43931189295405793
42
-0.26794919243112525
0
LWPOLYLINE
5
112
100
AcDbEntity
8
0
100
AcDbPolyline
90
4
70
1
43
0.0
10
3.2612975326213207
20
0.50745889647343223
42
-0.27404531011689909
10
6.3201210620330786
20
-4.7905788678548911
42
0.050638367563352389
10
4.8184921167407131
20
-4.5877486566145347
42
0.25197045967217996
10
2.6861391755642465
20
-0.89440502282796597
42
0.050638367563352528
0
LWPOLYLINE
5
113
100
AcDbEntity
8
0
100
AcDbPolyline
90
5
70
1
43
0.0
10
1.7910963109828808
20
-2.1075953030539574
42
-0.26794919243112247
10
3.3203170821499595
20
-4.688580353965941
42
0.054048087752047731
10
1.7645494491632541
20
-5.1283191783696775
42
0.421383092549655
10
0.69102003739855644
20
-3.2689116937736844
42
0.047731389499136127
10
1.7274377448715135
20
-2.2855581946348682
42
-0.0063004444273173444
0
LWPOLYLINE
5
114
100
AcDbEntity
8
0
100
AcDbPolyline
90
4
70
1
43
0.0
10
-0.98870246737867484
20
7.8686748286411596
42
-1.7549928774784229
10
-9.9291049106555445
20
2.7069310713516814
42
0.050638367563352119
10
-8.427475965363179
20
2.5041008601113246
42
1.673691200916358
10
-1.5638608244357488
20
6.4668109093397597
42
0.050638367563352805
0
LWPOLYLINE
5
115
100
AcDbEntity
8
0
100
AcDbPolyline
90
4
70
1
43
0.0
10
6.1133582634690642
20
-6.2854055371571613
42
-0.06346989086027563
10
5.5361211855860937
20
-7.688469606486958
42
0.46990269980674221
10
0.072524034636814727
20
-11.948964588782262
42
0.050638367563352389
10
-1.4291049106555542
20
-12.151794800022614
42
-0.49613947152304694
0
LWPOLYLINE
5
116
100
AcDbEntity
8
0
100
AcDbPolyline
90
2
70
1
43
0.0
10
-18.267727218428846
20
-13.467486172369034
42
-0.1168956640482933
10
-18.267727218428885
20
-10.699809420637346
42
-0.24441820664643613
0
LWPOLYLINE
5
117
100
AcDbEntity
8
0
100
AcDbPolyline
90
3
70
1
43
0.0
10
-6.772562255128495
20
-17.007990058970346
42
-0.010694362640261355
10
-6.9883154537230006
20
-17.245391553792679
42
0.0056791001173906955
10
-6.8702813812437933
20
-17.3135385573121
42
-0.010694362640261355
0
LWPOLYLINE
5
118
100
AcDbEntity
8
0
100
AcDbPolyline
90
5
70
1
43
0.0
10
1.2469786639240517
20
-15.117482374909688
42
-0.0068900798525413989
10
1.1646392299438142
20
-15.024745789699608
42
0.37987830628178176
10
-3.9686344459732759
20
-18.083520117061191
42
-0.063469890860275963
10
-5.4723421120915496
20
-17.881890055849233
42
-0.41319693527066875
10
1.8633582634690842
20
-13.646621469324881
42
-0.066745620929360247
0
LWPOLYLINE
5
119
100
AcDbEntity
8
0
100
AcDbPolyline
90
3
70
1
43
0.0
10
-8.3119350890207766
20
7.0029249578761243
42
-0.11757549394069346
10
-9.6500801596053432
20
7.3851634387184673
42
0.016995952241879456
10
-9.4887024673786549
20
7.8686748286412023
42
-0.06109915118782689
0
LWPOLYLINE
5
120
100
AcDbEntity
8
0
100
AcDbPolyline
90
2
70
1
43
0.0
10
-5.6501703831384216
20
8.38676333374198
42
-0.24441820664643707
10
-8.0470487596016849
20
7.0029249578761252
42
-0.116895664048296
0
LWPOLYLINE
5
121
100
AcDbEntity
8
0
100
AcDbPolyline
90
4
70
1
43
0.0
10
-2.3866417365309189
20
8.4370263271782981
42
-0.49613947152304666
10
-11.238315453722992
20
4.8382562427104965
42
0.050638367563352667
10
-10.311844865487693
20
6.0372899507715472
42
0.46990269980674149
10
-3.8903494026491892
20
8.6386563883902507
42
-0.063469890860275852
0
LWPOLYLINE
5
122
100
AcDbEntity
8
0
100
AcDbPolyline
90
3
70
1
43
0.0
10
-0.050003886021027164
20
-6.1759520348972572
42
-0.13786739469465745
10
-0.75302133607594213
20
-5.7700647208630551
42
-0.047731389499135787
10
-1.0864215934939798
20
-7.1593055340360481
42
-0.04773138949913612
0
LWPOLYLINE
5
123
100
AcDbEntity
8
0
100
AcDbPolyline
90
4
70
1
43
0.0
10
-8.5500038860210168
20
-3.2689116937736884
42
-0.054048087752047932
10
-9.7087126954783152
20
-2.1414468134234781
42
0.26191113832856994
10
-11.179300930772438
20
-4.6885803539659552
42
-0.054048087752048599
10
-9.6235332977857269
20
-5.1283191783696793
42
-0.42138309254965595
0
LWPOLYLINE
5
124
100
AcDbEntity
8
0
100
AcDbPolyline
90
4
70
1
43
0.0
10
-5.3364215934939798
20
-14.520521466203766
42
-0.10280471573715343
10
-2.9061855814631512
20
-12.674453989009987
42
-0.10280471573715332
10
-2.5225622551284932
20
-9.646774126802617
42
-0.10280471573715366
10
-4.952798267159281
20
-11.4928416039964
42
-0.10280471573715433
0
LWPOLYLINE
5
125
100
AcDbEntity
8
0
100
AcDbPolyline
90
2
70
1
43
0.0
10
-14.150170383138423
20
8.3867633337419818
42
-0.24441820664643696
10
-16.547048759601722
20
7.0029249578761625
42
-0.11689566404829882
0
LWPOLYLINE
5
126
100
AcDbEntity
8
0
100
AcDbPolyline
90
5
70
1
43
0.0
10
-13.958712695478395
20
-9.5026627455910671
42
-1.7320508075689345
10
-13.900080159605356
20
-14.698484357784709
42
0.054048087752047468
10
-13.503021336075939
20
-13.131280653030768
42
2.4565184222027381
10
-13.503021336075937
20
-11.036014939975615
42
0.047731389499136273
10
-13.836421593493986
20
-9.6467741268026046
42
-0.0063004444273141239
0
LWPOLYLINE
5
127
100
AcDbEntity
8
0
100
AcDbPolyline
90
4
70
1
43
0.0
10
-5.8138608244357499
20
-8.5504587058429777
42
-0.050638367563353194
10
-5.2387024673786886
20
-9.9523226251443813
42
0.27404531011689948
10
-2.1798789379669197
20
-4.654284860816059
42
-0.050638367563352417
10
-3.6815078832592869
20
-4.8571150720564127
42
-0.2519704596721799
0
LWPOLYLINE
5
128
100
AcDbEntity
8
0
100
AcDbPolyline
90
5
70
1
43
0.0
10
-15.150271153144226
20
-2.1414468134234603
42
-0.0063004444273085727
10
-15.272562255128497
20
-2.285558194634894
42
0.047731389499135836
10
-15.60596251254653
20
-3.6747990078078905
42
0.42138309254967016
10
-17.753021336075939
20
-3.6747990078078918
42
0.054048087752047988
10
-18.15008015960538
20
-2.1075953030538961
42
-0.26794919243112764
0
LWPOLYLINE
5
129
100
AcDbEntity
8
0
100
AcDbPolyline
90
3
70
1
43
0.0
10
-18.400170383138427
20
-10.470411130245175
42
-0.061099151187827001
10
-19.738315453722993
20
-9.8841756216249568
42
0.01699595224187864
10
-19.400271153144153
20
-9.5026627455912092
42
-0.117575493940693
0
LWPOLYLINE
5
130
100
AcDbEntity
8
0
100
AcDbPolyline
90
2
70
1
43
0.0
10
-22.517727218428863
20
-6.106270240201308
42
-0.11689566404829589
10
-22.517727218428885
20
-3.3385934884696287
42
-0.24441820664643496
0
LWPOLYLINE
5
131
100
AcDbEntity
8
0
100
AcDbPolyline
90
4
70
1
43
0.0
10
-7.8089799626014482
20
-6.1759520348972599
42
-0.054048087752048488
10
-6.650271153144157
20
-7.3034169152474604
42
0.2619111383285701
10
-5.1796829178500374
20
-4.7562833747049975
42
-0.05404808775204771
10
-6.7354505508367444
20
-4.3165445503012583
42
-0.42138309254965611
0
LWPOLYLINE
5
132
100
AcDbEntity
8
0
100
AcDbPolyline
90
8
70
1
43
0.0
10
-19.906185581463358
20
2.0479778753254489
42
-0.6311739624583167
10
-8.1794919243112272
20
8.8183876149863956
42
-0.63117396245830426
10
3.5472017328406791
20
2.0479778753254645
42
-0.63117396245830459
10
3.5472017328406844
20
-11.492841603996403
42
-0.63117396245830426
10
-8.179491924311181
20
-18.263251343657419
42
-0.21264263432137501
10
-14.180429589268648
20
-19.376398806474239
42
-1.7881641043812293
10
-17.869730729942042
20
-17.246379799784798
42
-0.21264263432137362
10
-19.906185581463109
20
-11.49284160399632
42
-0.63117396245830992
0
ENDSEC
0
SECTION
2
OBJECTS
0
DICTIONARY
5
C
100
AcDbDictionary
3
ACAD_GROUP
350
D
3
ACAD_MLINESTYLE
350
17
0
DICTIONARY
5
D
100
AcDbDictionary
0
DICTIONARY
5
1A
330
C
100
AcDbDictionary
0
DICTIONARY
5
17
100
AcDbDictionary
0
ENDSEC
0
EOF
