<?xml version="1.0" encoding="utf-8"?>
<!-- Generator: Adobe Illustrator 22.1.0, SVG Export Plug-In . SVG Version: 6.00 Build 0)  -->
<svg version="1.1" id="Layer_1" xmlns="http://www.w3.org/2000/svg" xmlns:xlink="http://www.w3.org/1999/xlink" x="0px" y="0px"
	 viewBox="0 0 1728.1 864.1" style="enable-background:new 0 0 1728.1 864.1;" xml:space="preserve">
<style type="text/css">
	.st0{fill:none;stroke:#000000;stroke-miterlimit:10;}
</style>
<g transform="translate(162.04000000000008 711.83) rotate(180)">
	<path id="path3289" class="st0" d="M162,655.2l-41.1-56.6l-66.6,21.6v70l66.5,21.6L162,655.2"/>
	<path id="path3279" class="st0" d="M93.8,695.5l-8.1-2.6l6.6-20.2l8.1,2.6L93.8,695.5"/>
	<path id="path3281" class="st0" d="M138.2,675.9l-5,6.9L116,670.3l5-6.9L138.2,675.9"/>
	<path id="path3283" class="st0" d="M133.2,627.6l5,6.9L121,647l-5-6.9L133.2,627.6"/>
	<path id="path3285" class="st0" d="M85.8,617.5l8.1-2.6l6.6,20.2l-8.1,2.6L85.8,617.5"/>
	<path id="path3287" class="st0" d="M61.4,659.4v-8.5h21.3v8.5H61.4"/>
</g>
<g transform="translate(161.15 245.0767603) rotate(180)">
	<path id="path3289-4" class="st0" d="M161.1,75.3L120,18.7L53.5,40.3v70l66.6,21.6L161.1,75.3"/>
	<path id="path3279-9" class="st0" d="M93,115.6l-8.1-2.6l6.6-20.2l8.1,2.6L93,115.6"/>
	<path id="path3281-2" class="st0" d="M137.3,95.9l-5,6.9l-17.2-12.5l5-6.9L137.3,95.9"/>
	<path id="path3283-1" class="st0" d="M132.3,47.7l5,6.9L120.1,67l-5-6.9L132.3,47.7"/>
	<path id="path3285-1" class="st0" d="M84.9,37.5l8.1-2.6l6.6,20.2l-8.1,2.6L84.9,37.5"/>
	<path id="path3287-75" class="st0" d="M60.5,79.5V71h21.3v8.5H60.5"/>
</g>
<g transform="translate(367.68 502.86676029999995) rotate(180)">
	<path id="path3289-2-6" class="st0" d="M367.7,219.8l-41.1-56.6L260,184.8v70l66.5,21.6L367.7,219.8"/>
	<path id="path3279-8-6" class="st0" d="M299.6,260.2l-8.1-2.6l6.6-20.2l8.1,2.6L299.6,260.2"/>
	<path id="path3281-3-4" class="st0" d="M343.9,240.5l-5,6.9l-17.2-12.5l5-6.9L343.9,240.5"/>
	<path id="path3283-7-6" class="st0" d="M338.9,192.2l5,6.9l-17.2,12.5l-5-6.9L338.9,192.2"/>
	<path id="path3285-48-4" class="st0" d="M291.5,182l8.1-2.6l6.6,20.2l-8.1,2.7L291.5,182"/>
	<path id="path3287-0-8" class="st0" d="M267.2,224v-8.5h21.3v8.5H267.2"/>
</g>
<g transform="translate(368.36000000000007 1051.4637754999999) rotate(180)">
	<path id="path3289-8" class="st0" d="M368.4,655.2l-41.1-56.6l-66.5,21.6v70l66.5,21.6L368.4,655.2"/>
	<path id="path3279-94" class="st0" d="M300.2,695.5l-8.1-2.6l6.6-20.2l8.1,2.6L300.2,695.5"/>
	<path id="path3281-0" class="st0" d="M344.6,675.9l-5,6.9l-17.2-12.5l5-6.9L344.6,675.9"/>
	<path id="path3283-09" class="st0" d="M339.6,627.6l5,6.9L327.4,647l-5-6.9L339.6,627.6"/>
	<path id="path3285-3" class="st0" d="M292.1,617.5l8.1-2.6l6.6,20.2l-8.1,2.6L292.1,617.5"/>
	<path id="path3287-2" class="st0" d="M267.8,659.4v-8.5H289v8.5H267.8"/>
</g>
<g transform="translate(542.27 813.3537754999999) rotate(180)">
	<path id="path3289-2-6-8" class="st0" d="M485.6,252.9L429,294l21.6,66.5h70l21.6-66.5L485.6,252.9"/>
	<path id="path3279-8-6-5" class="st0" d="M526,321l-2.7,8l-20.2-6.6l2.6-8.1L526,321"/>
	<path id="path3281-3-4-3" class="st0" d="M506.3,276.6l6.9,5l-12.5,17.2l-6.9-5L506.3,276.6"/>
	<path id="path3283-7-6-1" class="st0" d="M458,281.6l6.9-5l12.5,17.2l-6.9,5L458,281.6"/>
	<path id="path3285-48-4-8" class="st0" d="M447.9,329l-2.6-8l20.2-6.6l2.6,8.1L447.9,329"/>
	<path id="path3287-0-8-9" class="st0" d="M489.9,353.4h-8.5v-21.3h8.5V353.4"/>
</g>
<g transform="translate(-455.78999999999985 1097.7456258000002) rotate(270)">
	<path id="path3289-2-6-8-0" class="st0" d="M485.6,455.8L429,496.9l21.6,66.5h70l21.6-66.5L485.6,455.8"/>
	<path id="path3279-8-6-5-1" class="st0" d="M526,523.9l-2.7,8.1l-20.2-6.6l2.6-8.1L526,523.9"/>
	<path id="path3281-3-4-3-1" class="st0" d="M506.3,479.6l6.9,5l-12.5,17.2l-6.9-5L506.3,479.6"/>
	<path id="path3283-7-6-1-5" class="st0" d="M458,484.6l6.9-5l12.5,17.2l-6.9,5L458,484.6"/>
	<path id="path3285-48-4-8-2" class="st0" d="M447.9,532l-2.6-8.1l20.2-6.6l2.6,8.1L447.9,532"/>
	<path id="path3287-0-8-9-9" class="st0" d="M489.9,556.3h-8.5V535h8.5V556.3"/>
</g>
<g transform="translate(-53.71000000000001 497.2308137) rotate(0)">
	<path id="path3289-2" class="st0" d="M161.4,219.8l-41.1-56.6l-66.5,21.6v70l66.5,21.6L161.4,219.8"/>
	<path id="path3279-8" class="st0" d="M93.2,260.2l-8.1-2.6l6.6-20.2l8.1,2.6L93.2,260.2"/>
	<path id="path3281-3" class="st0" d="M137.6,240.5l-5,6.9l-17.2-12.5l5-6.9L137.6,240.5"/>
	<path id="path3283-7" class="st0" d="M132.6,192.2l5,6.9l-17.2,12.5l-5-6.9L132.6,192.2"/>
	<path id="path3285-48" class="st0" d="M85.1,182l8.1-2.6l6.6,20.2l-8.1,2.6L85.1,182"/>
	<path id="path3287-0" class="st0" d="M60.8,224v-8.5H82v8.5H60.8"/>
</g>
<g transform="translate(449.69729110000003 757.3727633) rotate(180)">
	<path id="path3289-4-3" class="st0" d="M367.5,75.3l-41.1-56.6l-66.5,21.6v70l66.5,21.6L367.5,75.3"/>
	<path id="path3279-9-4" class="st0" d="M299.3,115.6l-8.1-2.6l6.6-20.2l8.1,2.6L299.3,115.6"/>
	<path id="path3281-2-3" class="st0" d="M343.7,95.9l-5,6.9l-17.2-12.5l5-6.9L343.7,95.9"/>
	<path id="path3283-1-6" class="st0" d="M338.7,47.7l5,6.9L326.5,67l-5-6.9L338.7,47.7"/>
	<path id="path3285-1-8" class="st0" d="M291.3,37.5l8.1-2.6l6.6,20.2l-8.1,2.6L291.3,37.5"/>
	<path id="path3287-75-1" class="st0" d="M266.9,79.5V71h21.3v8.5H266.9"/>
</g>
<g transform="translate(264.93423509999997 -19.076610200000005) rotate(90)">
	<path id="path3289-4-3-3" class="st0" d="M485.4,49.9L428.8,91l21.6,66.5h70L542,91L485.4,49.9"/>
	<path id="path3279-9-4-9" class="st0" d="M525.8,118l-2.6,8.1l-20.2-6.6l2.6-8.1L525.8,118"/>
	<path id="path3281-2-3-2" class="st0" d="M506,73.7l6.9,5l-12.5,17.2l-6.9-5L506,73.7"/>
	<path id="path3283-1-6-9" class="st0" d="M457.8,78.7l6.9-5l12.5,17.2l-6.9,5L457.8,78.7"/>
	<path id="path3285-1-8-2" class="st0" d="M447.7,126.1L445,118l20.2-6.6l2.6,8.1L447.7,126.1"/>
	<path id="path3287-75-1-5" class="st0" d="M489.6,150.4h-8.5v-21.3h8.5V150.4"/>
</g>
<g transform="translate(-152.68000000000004 220.99403400000006) rotate(0)">
	<path id="path3289-7-7" class="st0" d="M368,364.4l-41.1-56.6l-66.5,21.6v70l66.5,21.6L368,364.4"/>
	<path id="path3279-96-0" class="st0" d="M299.8,404.7l-8.1-2.6l6.6-20.2l8.1,2.6L299.8,404.7"/>
	<path id="path3281-4-6" class="st0" d="M344.2,385l-5,6.9L322,379.4l5-6.9L344.2,385"/>
	<path id="path3283-0-4" class="st0" d="M339.2,336.8l5,6.9L327,356.2l-5-6.9L339.2,336.8"/>
	<path id="path3285-9-4" class="st0" d="M291.7,326.6l8.1-2.6l6.6,20.2l-8.1,2.6L291.7,326.6"/>
	<path id="path3287-5-1" class="st0" d="M267.4,368.6v-8.5h21.3v8.5H267.4"/>
</g>
<g transform="translate(-356.0575937 447.0075233000001) rotate(270)">
	<path id="path3289-5" class="st0" d="M161.8,508.9l-41.1-56.6L54.2,474v70l66.5,21.6L161.8,508.9"/>
	<path id="path3279-2" class="st0" d="M93.7,549.3l-8.1-2.6l6.6-20.2l8.1,2.6L93.7,549.3"/>
	<path id="path3281-8" class="st0" d="M138,529.6l-5,6.9L115.8,524l5-6.9L138,529.6"/>
	<path id="path3283-4" class="st0" d="M133,481.4l5,6.9l-17.2,12.5l-5-6.9L133,481.4"/>
	<path id="path3285-4" class="st0" d="M85.6,471.2l8.1-2.6l6.6,20.2l-8.1,2.6L85.6,471.2"/>
	<path id="path3287-7" class="st0" d="M61.3,513.2v-8.5h21.3v8.5H61.3"/>
</g>
<g transform="translate(517.2743342 119.33719009999999) rotate(90)">
	<path id="path3289-7" class="st0" d="M161.6,364.4l-41.1-56.6L54,329.4v69.9l66.5,21.6L161.6,364.4"/>
	<path id="path3279-96" class="st0" d="M93.4,404.7l-8.1-2.6l6.6-20.2l8.1,2.6L93.4,404.7"/>
	<path id="path3281-4" class="st0" d="M137.8,385l-5,6.9l-17.2-12.5l5-6.9L137.8,385"/>
	<path id="path3283-0" class="st0" d="M132.8,336.8l5,6.9l-17.2,12.5l-5-6.9L132.8,336.8"/>
	<path id="path3285-9" class="st0" d="M85.4,326.6l8.1-2.6l6.6,20.2l-8.1,2.6L85.4,326.6"/>
	<path id="path3287-5" class="st0" d="M61,368.6v-8.5h21.3v8.5H61"/>
</g>
<g transform="translate(-356.0047447999999 426.9606999000001) rotate(270)">
	<path id="path3289-5-0" class="st0" d="M368.2,508.9l-41.1-56.6L260.6,474v69.9l66.5,21.6L368.2,508.9"/>
	<path id="path3279-2-1" class="st0" d="M300,549.3l-8.1-2.6l6.6-20.2l8.1,2.6L300,549.3"/>
	<path id="path3281-8-4" class="st0" d="M344.4,529.6l-5,6.9L322.2,524l5-6.9L344.4,529.6"/>
	<path id="path3283-4-7" class="st0" d="M339.4,481.4l5,6.9l-17.2,12.5l-5-6.9L339.4,481.4"/>
	<path id="path3285-4-5" class="st0" d="M292,471.2l8.1-2.6l6.6,20.2l-8.1,2.6L292,471.2"/>
	<path id="path3287-7-5" class="st0" d="M267.6,513.2v-8.5h21.3v8.5H267.6"/>
</g>
<g transform="translate(-453.55522829999995 777.7327171000001) rotate(270)">
	<path id="path3305-2" class="st0" d="M8.6,574.2l6.9,5l5-6.9l13.3,9.6l-0.2-6.9l8.5-0.2L41.6,555l-8.6,0l-0.4-14.2l-5,6.9l-6.9-5
		L8.3,560l6.9,5L8.6,574.2"/>
</g>
<g transform="translate(-579.3499999999999 422.06816400000014) rotate(270)">
	<path id="path3303-84" class="st0" d="M384.3,694.8l-6.9-5l-5,6.9l-13.3-9.6l0.2,6.9l-8.5,0.2l0.5,19.8l8.5-0.2l0.4,14.2l5-6.9
		l6.9,5l12.5-17.2l-6.9-5L384.3,694.8"/>
</g>
<g transform="translate(-9.100000000000001 341.6226266) rotate(0)">
	<path id="path3303-4-3" class="st0" d="M42.5,209.8l-6.9-5l-5,6.9L17.4,202l0.2,6.9l-8.5,0.2L9.6,229l8.5-0.2l0.4,14.2l5-6.9l6.9,5
		l12.5-17.2l-6.9-5L42.5,209.8"/>
</g>
<g transform="translate(-581.812504 248.57000000000014) rotate(270)">
	<path id="path3305-5" class="st0" d="M215.1,720.4l6.9,5l5-6.9l13.3,9.6l-0.2-6.9l8.5-0.2l-0.5-19.9l-8.5,0.2l-0.4-14.2l-5,6.9
		l-6.9-5l-12.5,17.2l6.9,5L215.1,720.4"/>
</g>
<g transform="translate(514.6347717 361.46271709999996) rotate(90)">
	<path id="path3293-2-1" class="st0" d="M382.6,386.4h8.5v-8.5h16.4l-4.2-5.5l6.8-5.2l-12-15.8l-6.8,5.2l-8.6-11.3v8.5H374V375h8.5
		L382.6,386.4"/>
</g>
<g transform="translate(128.95447180000002 -249.32042399999997) rotate(0)">
	<path id="path3305-9" class="st0" d="M8,285l6.9,5l5-6.9l13.3,9.6l-0.1-6.9l8.5-0.2L41,265.7l-8.5,0.2l-0.4-14.2l-5,6.9l-6.9-5
		L7.8,270.9l6.9,5L8,285"/>
</g>
<g transform="translate(391.91512869999997 -179.5752535) rotate(90)">
	<path id="path3303-4-3-6" class="st0" d="M248.9,209.8l-6.9-5l-5,6.9l-13.3-9.6l0.2,6.9l-8.5,0.2L216,229l8.5-0.2l0.4,14.2l5-6.9
		l6.9,5l12.5-17.2l-6.9-5L248.9,209.8"/>
</g>
<g transform="translate(715.6610421 741.7650725999999) rotate(180)">
	<path id="path3303-8-2-3-7" class="st0" d="M525.2,439.9l-5,6.9l6.9,5l-9.6,13.3l6.9-0.2l0.2,8.5l19.8-0.5l-0.2-8.5l14.2-0.4
		l-6.9-5l5-6.9l-17.2-12.5l-5,6.9L525.2,439.9"/>
</g>
<g transform="translate(-330.51715039999993 980.3432997000001) rotate(270)">
	<path id="path3303-4-7-1" class="st0" d="M249.4,498.9l-6.9-5l-5,6.9l-13.3-9.6l0.2,6.9l-8.5,0.2l0.5,19.8l8.5-0.2l0.4,14.2l5-6.9
		l6.9,5l12.5-17.2l-6.9-5L249.4,498.9"/>
</g>
<g transform="translate(583.3992589 -17.919314800000052) rotate(90)">
	<path id="path3305-9-0-4" class="st0" d="M550.9,406.1l5-6.9l-6.9-5l9.6-13.2l-6.9,0.2l-0.2-8.5l-19.8,0.5l0.2,8.5l-14.2,0.4l6.9,5
		l-5,6.9l17.2,12.5l5-6.9L550.9,406.1"/>
</g>
<g transform="translate(-349.1425336 -169.72) rotate(0)">
	<path id="path3305-21-5-0" class="st0" d="M550.6,203.1l5-6.9l-6.9-5l9.6-13.2l-7,0.2l-0.2-8.5l-19.8,0.5l0.2,8.5l-14.2,0.4l6.9,5
		l-5,6.9l17.2,12.5l5-6.9L550.6,203.1"/>
</g>
<g transform="translate(418.6245242 18.23246770000003) rotate(90)">
	<path id="path3293-5-1" class="st0" d="M382.3,241.8h8.5v-8.5h16.4l-4.2-5.5l6.8-5.2l-12-15.8L391,212l-8.6-11.3v8.5h-8.5v21.3h8.5
		v11.3"/>
</g>
<g transform="translate(858.7131267999999 38.379578199999955) rotate(90)">
	<path id="path3303-4" class="st0" d="M43.2,645.1l-6.9-5l-5,6.9L18,637.5l0.2,6.9l-8.5,0.2l0.5,19.8l8.5-0.2l0.4,14.2l5-6.9l6.9,5
		l12.5-17.2l-6.9-5L43.2,645.1"/>
</g>
<g transform="translate(620.1481759999999 404.76240949999993) rotate(90)">
	<path id="path3305-3-4" class="st0" d="M214.7,429.6l6.9,5l5-6.9l13.3,9.6l-0.2-6.9l8.5-0.2l-0.5-19.8l-8.5,0.2l-0.4-14.2l-5,6.9
		l-6.9-5l-12.5,17.2l6.9,5L214.7,429.6"/>
</g>
<g transform="translate(719.0801295 -10.823855400000014) rotate(90)">
	<path id="path3293-1" class="st0" d="M176.4,530.9h8.5v-8.5h16.4l-4.2-5.5l6.8-5.2l-12-15.8l-6.8,5.2l-8.6-11.3v8.5H168v21.3h8.5
		L176.4,530.9"/>
</g>
<g transform="translate(280.3450349 495.07617060000007) rotate(90)">
	<path id="path3303-4-9-1" class="st0" d="M248.7,65.2l-6.9-5l-5,6.9l-13.3-9.6l0.2,6.9l-8.5,0.2l0.5,19.8l8.5-0.2l0.4,14.2l5-6.9
		l6.9,5L249,79.3l-6.9-5L248.7,65.2"/>
</g>
<g transform="translate(-575.5599999999998 886.4370107000002) rotate(270)">
	<path id="path3305-9-0-4-2" class="st0" d="M550.9,609l5-6.9l-6.9-5l9.6-13.3l-6.9,0.2l-0.2-8.5l-19.8,0.5l0.2,8.5l-14.2,0.4l6.9,5
		l-5,6.9l17.2,12.5l5-6.9L550.9,609"/>
</g>
<g transform="translate(335.12936709999997 273.8242552) rotate(90)">
	<path id="path3305-21" class="st0" d="M7.8,140.5l6.9,5l5-6.9l13.3,9.6l-0.2-6.9l8.5-0.2l-0.5-19.8l-8.5,0.2l-0.4-14.2l-5,6.9
		l-6.9-5L7.6,126.4l6.9,5L7.8,140.5"/>
</g>
<g transform="translate(769.5408728 -104.52515430000005) rotate(90)">
	<path id="path3303-1-7" class="st0" d="M384.1,548.5l-6.9-5l-5,6.9l-13.2-9.6l0.2,6.9l-8.5,0.2l0.5,19.8l8.5-0.2l0.4,14.2l5-6.9
		l6.9,5l12.5-17.2l-6.9-5L384.1,548.5"/>
</g>
<g transform="translate(-277.7727089 508.63543059999995) rotate(0)">
	<path id="path3303-4-9-1-1" class="st0" d="M475.3,168.7l-5,6.9l6.9,5l-9.6,13.3l6.9-0.2l0.2,8.5l19.8-0.5l-0.2-8.5l14.2-0.4
		l-6.9-5l5-6.9l-17.2-12.5l-5,6.9L475.3,168.7"/>
</g>
<g transform="translate(483.4923172 182.92916709999997) rotate(90)">
	<path id="path3303-8-2" class="st0" d="M383.6,259.4l-6.9-5l-5,6.9l-13.3-9.6l0.2,6.9l-8.5,0.2l0.5,19.8l8.5-0.2l0.4,14.2l5-6.9
		l6.9,5l12.5-17.2l-6.9-5L383.6,259.4"/>
</g>
<g transform="translate(405.0999999999999 -366.4062389) rotate(90)">
	<path id="path3303-4-3-6-2" class="st0" d="M475.6,371.6l-5,6.9l6.9,5l-9.6,13.3l6.9-0.2l0.2,8.5l19.8-0.5l-0.2-8.5l14.2-0.4
		l-6.9-5l5-6.9l-17.2-12.5l-5,6.9L475.6,371.6"/>
</g>
<g transform="translate(915.4228496 601.4732996999999) rotate(90)">
	<path id="path3303" class="st0" d="M177.9,694.8l-6.9-5l-5,6.9l-13.2-9.6l0.2,7l-8.5,0.2L145,714l8.5-0.2l0.4,14.2l5-6.9l6.9,5
		l12.5-17.2l-6.9-5L177.9,694.8"/>
</g>
<g transform="translate(-19.865623099999993 102.03246770000004) rotate(0)">
	<path id="path3305-9-0" class="st0" d="M214.4,285l6.9,5l5-6.9l13.3,9.6l-0.2-6.9l8.5-0.2l-0.5-19.8l-8.5,0.2l-0.4-14.2l-5,6.9
		l-6.9-5l-12.5,17.2l6.9,5L214.4,285"/>
</g>
<g transform="translate(631.1728657 274.6361845) rotate(90)">
	<path id="path3303-88" class="st0" d="M177.5,403.9l-6.9-5l-5,6.9l-13.3-9.6l0.2,6.9l-8.5,0.2l0.5,19.8l8.5-0.2l0.4,14.2l5-6.9
		l6.9,5l12.5-17.2l-6.9-5L177.5,403.9"/>
</g>
<g transform="translate(-294.3168654 166.6861446000001) rotate(270)">
	<path id="path3303-4-7" class="st0" d="M43,498.9l-6.9-5l-5,6.9l-13.3-9.6l0.2,6.9l-8.5,0.2l0.5,19.8l8.5-0.2l0.4,14.2l5-6.9l6.9,5
		L43.3,513l-6.9-5L43,498.9"/>
</g>
<g transform="translate(345.0874664 -199.56) rotate(90)">
	<path id="path3305-21-5" class="st0" d="M214.2,140.5l6.9,5l5-6.9l13.3,9.6l-0.2-6.9l8.5-0.2l-0.5-19.8l-8.5,0.2l-0.4-14.2l-5,6.9
		l-6.9-5l-12.5,17.2l6.9,5L214.2,140.5"/>
</g>
<g transform="translate(192.9705762 70.24125750000002) rotate(0)">
	<path id="path3305-3" class="st0" d="M8.3,429.6l6.9,5l5-6.9l13.3,9.6l-0.2-6.9l8.5-0.2l-0.5-19.8l-8.5,0.2l-0.4-14.2l-5,6.9
		l-6.9-5L8,415.5l6.9,5L8.3,429.6"/>
</g>
<g transform="translate(-491.50178800000003 685.5737997000001) rotate(270)">
	<path id="path3305" class="st0" d="M8.7,720.4l6.9,5l5-6.9l13.3,9.6l-0.2-6.9l8.5-0.2l-0.5-19.8l-8.5,0.2l-0.4-14.2l-5,6.9l-6.9-5
		L8.5,706.3l6.9,5L8.7,720.4"/>
</g>
<g transform="translate(-8.860000000000003 157.12999539999998) rotate(0)">
	<path id="path3303-4-9" class="st0" d="M42.3,65.2l-6.9-5l-5,6.9l-13.2-9.6l0.2,6.9l-8.5,0.2l0.5,19.8l8.5-0.2l0.4,14.2l5-6.9
		l6.9,5l12.4-17.3l-6.9-5L42.3,65.2"/>
</g>
<g transform="translate(585.5943864999999 -26.722630500000037) rotate(90)">
	<path id="path3303-4-38-9" class="st0" d="M249.2,354.3l-6.9-5l-5,6.9l-13.2-9.6l0.2,6.9l-8.5,0.2l0.5,19.8l8.5-0.2l0.4,14.2l5-6.9
		l6.9,5l12.4-17.3l-6.9-5L249.2,354.3"/>
</g>
<g transform="translate(-313.2917546 556.4395328999999) rotate(0)">
	<path id="path3303-2-3-1" class="st0" d="M525,34l-5,6.9l6.9,5l-9.6,13.3l6.9-0.2l0.2,8.5l19.8-0.5l-0.2-8.5l14.2-0.3l-6.9-5l5-6.9
		L539,33.7l-5,6.9L525,34"/>
</g>
<g transform="translate(351.61730009999997 -274.29793259999997) rotate(90)">
	<path id="path3303-2-3" class="st0" d="M383.4,114.8l-6.9-5l-5,6.9l-13.3-9.6l0.2,6.9l-8.5,0.2l0.5,19.8l8.5-0.2l0.4,14.2l5-6.9
		l6.9,5l12.5-17.2l-6.9-5L383.4,114.8"/>
</g>
<g transform="translate(-263.7393105 -257.0870319) rotate(0)">
	<path id="path3303-4-3-6-2-4" class="st0" d="M475.6,574.6l-5,6.9l6.9,5l-9.6,13.3l6.9-0.2l0.2,8.5l19.8-0.5l-0.2-8.5l14.2-0.4
		l-6.9-5l5-6.9l-17.2-12.5l-5,6.9L475.6,574.6"/>
</g>
<g transform="translate(360.3112908 243.5507744) rotate(90)">
	<path id="path3303-2" class="st0" d="M177,114.8l-6.9-5l-5,6.9l-13.3-9.6l0.2,6.9l-8.5,0.2L144,134l8.5-0.2l0.4,14.2l5-6.9l6.9,5
		l12.5-17.2l-6.9-5L177,114.8"/>
</g>
<g transform="translate(1.820576200000005 -136.82874249999998) rotate(0)">
	<path id="path3303-4-4" class="st0" d="M249.6,645.1l-6.9-5l-5,6.9l-13.3-9.6l0.2,6.9l-8.5,0.2l0.5,19.8l8.5-0.2l0.4,14.2l5-6.9
		l6.9,5l12.5-17.2l-6.9-5L249.6,645.1"/>
</g>
<g transform="translate(466.8850349 249.60329969999998) rotate(90)">
	<path id="path3293-5-1-5" class="st0" d="M507.6,238.2v-8.5h-8.5v-16.4l-5.5,4.2l-5.2-6.8l-15.8,12l5.2,6.8l-11.3,8.6h8.5v8.5h21.3
		v-8.5L507.6,238.2"/>
</g>
<g transform="translate(-17.44917709999993 807.0765802000001) rotate(270)">
	<path id="path3303-8-2-3" class="st0" d="M525.2,236.9l-5,6.9l6.9,5l-9.6,13.2l6.9-0.2l0.2,8.5l19.8-0.5l-0.2-8.5l14.2-0.4l-6.9-5
		l5-6.9l-17.2-12.4l-5,6.9L525.2,236.9"/>
</g>
<g transform="translate(397.6859323 845.6057652) rotate(180)">
	<path id="path3303-8" class="st0" d="M177.3,259.4l-6.9-5l-5,6.9l-13.3-9.6l0.2,6.9l-8.5,0.2l0.5,19.8l8.5-0.2l0.4,14.2l5-6.9
		l6.9,5l12.5-17.2l-6.9-5L177.3,259.4"/>
</g>
<g transform="translate(-320.8456185 220.2205310000001) rotate(270)">
	<path id="path3303-1" class="st0" d="M177.8,548.5l-6.9-5l-5,6.9l-13.3-9.6l0.2,6.9l-8.5,0.2l0.5,19.8l8.5-0.2l0.4,14.2l5-6.9
		l6.9,5l12.4-17.2l-6.9-5L177.8,548.5"/>
</g>
<g transform="translate(-175.70996879999993 536.3727976) rotate(270)">
	<path id="path3303-88-1" class="st0" d="M383.9,403.9l-6.9-5l-5,6.9l-13.3-9.6l0.2,6.9l-8.5,0.2l0.5,19.8l8.5-0.2l0.4,14.2l5-6.9
		l6.9,5l12.5-17.2l-6.9-5L383.9,403.9"/>
</g>
<g transform="translate(215.6628989 98.41867880000001) rotate(0)">
	<path id="path3303-4-38" class="st0" d="M42.8,354.3l-6.9-5l-5,6.9l-13.3-9.6l0.2,6.9l-8.5,0.2l0.5,19.8l8.5-0.2l0.4,14.2l5-6.9
		l6.9,5L43,368.4l-6.9-5L42.8,354.3"/>
</g>
<g transform="translate(-268.81857419999994 1091.6666244) rotate(270)">
	<path id="path3293-1-3" class="st0" d="M382.8,530.9h8.5v-8.5h16.4l-4.2-5.5l6.8-5.2l-12-15.8l-6.8,5.2l-8.6-11.3v8.5h-8.5v21.3
		h8.5L382.8,530.9"/>
</g>
<g transform="translate(475.23492940000006 550.4087764999999) rotate(180)">
	<path id="path3299-0-7" class="st0" d="M214.6,304.9l6.9-5l5,6.9l13.2-9.7l-0.1,6.9l8.5,0.2l-0.4,19.8l-8.5-0.2l-0.3,14.2l-5-6.9
		l-6.9,5L214.4,319l6.9-5L214.6,304.9"/>
</g>
<g transform="translate(59.959020100000004 -3.2849921999999765) rotate(0)">
	<path id="path3293-2" class="st0" d="M176.2,386.4h8.5v-8.5H201l-4.2-5.5l6.8-5.2l-12.1-15.8l-6.8,5.2l-8.6-11.3v8.5h-8.5V375h8.5
		L176.2,386.4"/>
</g>
<g transform="translate(558.7923866 608.8093693000001) rotate(90)">
	<path id="path3299-0" class="st0" d="M8.2,304.9l6.9-5l5,6.9l13.2-9.7l-0.1,6.9l8.5,0.2L41.3,324l-8.5-0.2L32.5,338l-5-6.9l-6.9,5
		L8,319l6.9-5L8.2,304.9"/>
</g>
<g transform="translate(-145.71063289999998 227.511686) rotate(0)">
	<path id="path3293-18-8" class="st0" d="M382.1,97.2h8.5v-8.5H407l-4.2-5.5l6.8-5.2l-12.1-15.8l-6.8,5.2l-8.6-11.3v8.5h-8.5v21.3
		h8.5L382.1,97.2"/>
</g>
<g transform="translate(426.8498273 342.3912885) rotate(180)">
	<path id="path3293-5" class="st0" d="M176,241.8h8.5v-8.5h16.4l-4.2-5.5l6.8-5.2l-12.1-15.8l-6.8,5.2l-8.6-11.3v8.5h-8.5v21.3h8.5
		L176,241.8"/>
</g>
<g transform="translate(68.08017340000004 932.924348) rotate(270)">
	<path id="path3297-1" class="st0" d="M177.3,185.7l-6.9,5l-5-6.9l-13.2,9.7l0.1-7l-8.5-0.2l0.4-19.8l8.5,0.2l0.3-14.2l5,6.9l6.9-5
		l12.6,17.1l-6.9,5L177.3,185.7"/>
</g>
<g transform="translate(6.409168000000022 961.8393323) rotate(270)">
	<path id="path3293-18" class="st0" d="M175.7,97.2h8.5v-8.5h16.4l-4.2-5.5l6.8-5.2l-12-15.8l-6.8,5.2l-8.6-11.3v8.5h-8.5v21.3h8.5
		L175.7,97.2"/>
</g>
<g transform="translate(41.18 805.93913) rotate(180)">
	<path id="path3299-66" class="st0" d="M7.7,15.8l6.9-5l5,6.9L32.8,8l-0.1,6.9l8.5,0.2l-0.4,19.8l-8.5-0.2L32,48.9L27,42l-6.9,5
		L7.6,29.9l6.9-5L7.7,15.8"/>
</g>
<g transform="translate(-14.073525099999927 1147.9543443) rotate(270)">
	<path id="path3297-1-7" class="st0" d="M383.6,185.7l-6.9,5l-5-6.9l-13.2,9.7l0.1-7l-8.5-0.2l0.4-19.8l8.5,0.2l0.3-14.2l5,6.9
		l6.9-5l12.6,17.1l-6.9,5L383.6,185.7"/>
</g>
<g transform="translate(682.5665012000001 551.8783401) rotate(90)">
	<path id="path3305-2-9" class="st0" d="M214.9,574.2l6.9,5l5-6.9l13.2,9.6l-0.2-6.9l8.5-0.2l-0.5-19.8l-8.5,0.2L239,541l-5,6.9
		l-6.9-5L214.7,560l6.9,5L214.9,574.2"/>
</g>
<g transform="translate(735.0774664 453.3423576999999) rotate(180)">
	<path id="path3293-5-1-5-3" class="st0" d="M507.6,441.2v-8.5h-8.5v-16.4l-5.5,4.2l-5.2-6.8l-15.8,12l5.2,6.8l-11.3,8.6h8.5v8.5
		h21.3v-8.5L507.6,441.2"/>
</g>
<g transform="translate(-411.1436086 819.3526105000001) rotate(270)">
	<path id="path3299" class="st0" d="M8.6,595.7l6.9-5l5,6.9l13.2-9.7l-0.1,7L42,595l-0.4,19.8l-8.5-0.2l-0.3,14.2l-5-6.8l-6.8,5
		L8.4,609.8l6.9-5L8.6,595.7"/>
</g>
<g transform="translate(642.0138489000001 1089.5853568) rotate(180)">
	<path id="path3293-4" class="st0" d="M383,677.2h8.5v-8.5h16.4l-4.2-5.5l6.8-5.2l-12-15.8l-6.8,5.2l-8.6-11.3v8.5h-8.5v21.3h8.5
		L383,677.2"/>
</g>
<g transform="translate(-444.0075795 763.4378742) rotate(0)">
	<path id="path3293-18-8-1" class="st0" d="M507.4,35.3v-8.5h-8.5V10.4l-5.5,4.2l-5.2-6.8l-15.8,12l5.2,6.8l-11.3,8.6h8.5v8.5h21.3
		v-8.5L507.4,35.3"/>
</g>
<g transform="translate(843.6531421 643.9611589) rotate(90)">
	<path id="path3297" class="st0" d="M177.9,621l-6.9,5l-5-6.8l-13.2,9.7l0.1-6.9l-8.5-0.2l0.4-19.8l8.5,0.2l0.3-14.2l5,6.9l6.9-5
		l12.6,17.1l-6.9,5L177.9,621"/>
</g>
<g transform="translate(-292.4488607 621.5940450999999) rotate(0)">
	<path id="path3299-66-6-3" class="st0" d="M425.9,203.3l-5-6.9l6.8-5l-9.7-13.2l6.9,0.1l0.2-8.5l19.8,0.4l-0.2,8.5L459,179l-6.8,5
		l5,6.9L440,203.4l-5-6.8L425.9,203.3"/>
</g>
<g transform="translate(509.4924205000001 1403.7393323000001) rotate(180)">
	<path id="path3299-7-0-1-4" class="st0" d="M426.2,609.2l-5-6.9l6.9-5l-9.7-13.3l6.9,0.1l0.2-8.5l19.8,0.4l-0.2,8.5l14.2,0.3
		l-6.9,5l5,6.9l-17.1,12.6l-5-6.9L426.2,609.2"/>
</g>
<g transform="translate(20.2245513 639.4414168) rotate(0)">
	<path id="path3299-66-6" class="st0" d="M214.1,15.8l6.9-5l5,6.8L239.1,8l-0.1,6.9l8.5,0.2l-0.4,19.8l-8.5-0.2l-0.3,14.2l-5-6.8
		l-6.9,5L213.8,30l6.9-5L214.1,15.8"/>
</g>
<g transform="translate(571.0794943 791.4181407) rotate(90)">
	<path id="path3299-6" class="st0" d="M8.5,449.5l6.9-5l5,6.9l13.2-9.7l-0.1,6.9l8.5,0.2l-0.4,19.8l-8.5-0.2l-0.3,14.2l-5-6.9
		l-6.9,5L8.3,463.6l6.9-5L8.5,449.5"/>
</g>
<g transform="translate(643.1516353 589.2260851) rotate(90)">
	<path id="path3299-6-6" class="st0" d="M214.8,449.5l6.9-5l5,6.9l13.2-9.7l-0.1,6.9l8.5,0.2l-0.4,19.8l-8.5-0.2l-0.3,14.2l-5-6.8
		l-6.8,5l-12.6-17.1l6.9-5L214.8,449.5"/>
</g>
<g transform="translate(459.32000000000005 1271.6463158) rotate(180)">
	<path id="path3297-1-7-3-2" class="st0" d="M451.5,439.9l5,6.9l-6.8,5l9.7,13.2l-6.9-0.1l-0.2,8.5l-19.8-0.4l0.2-8.5l-14.2-0.3
		l6.9-5l-5-6.8l17.1-12.6l5,6.9L451.5,439.9"/>
</g>
<g transform="translate(392.0831421 807.2211589) rotate(90)">
	<path id="path3299-7" class="st0" d="M8,160.3l6.8-5l5,6.9l13.2-9.7l-0.1,6.9l8.5,0.2L41,179.4l-8.5-0.2l-0.3,14.2l-5-6.9l-6.9,5
		l-12.5-17l6.9-5L8,160.3"/>
</g>
<g transform="translate(514.6227878 674.3561639) rotate(90)">
	<path id="path3297-7" class="st0" d="M177.8,474.8l-6.8,5l-5-6.9l-13.2,9.7l0.1-6.9l-8.5-0.2l0.4-19.8l8.5,0.2l0.3-14.2l5,6.9
		l6.9-5l12.6,17.1l-6.9,5L177.8,474.8"/>
</g>
<g transform="translate(-239.35886069999995 1277.4540451) rotate(270)">
	<path id="path3299-7-0-1" class="st0" d="M426.2,406.2l-5-6.9l6.9-5l-9.7-13.2l6.9,0.1l0.2-8.5l19.8,0.4l-0.2,8.5l14.2,0.3l-6.9,5
		l5,6.8l-17.1,12.6l-5-6.9L426.2,406.2"/>
</g>
<g transform="translate(487.24094230000003 1006.7733801999999) rotate(180)">
	<path id="path3299-7-0" class="st0" d="M214.4,160.3l6.9-5l5,6.9l13.2-9.7l-0.1,6.9l8.5,0.2l-0.4,19.8l-8.5-0.2l-0.3,14.2l-5-6.9
		l-6.8,5l-12.6-17.1l6.8-5L214.4,160.3"/>
</g>
<g transform="translate(-183.95920029999996 -55.76544440000001) rotate(0)">
	<path id="path3297-1-7-3" class="st0" d="M451.5,236.9l5,6.9l-6.8,5l9.7,13.3l-6.9-0.1l-0.2,8.5l-19.8-0.4l0.2-8.5l-14.2-0.3l6.9-5
		l-5-6.8l17.1-12.6l5,6.9L451.5,236.9"/>
</g>
<g transform="translate(406.6536612 683.8086605) rotate(90)">
	<path id="path3297-5" class="st0" d="M177.5,330.2l-6.9,5l-5-6.9l-13.2,9.7l0.1-7l-8.5-0.2l0.4-19.8l8.5,0.2l0.3-14.2l5,6.9l6.9-5
		l12.6,17.1l-6.8,5L177.5,330.2"/>
</g>
<g transform="translate(626.3013543000001 1010.3470193999999) rotate(180)">
	<path id="path3297-7-1" class="st0" d="M384.1,474.8l-6.9,5l-5-6.9l-13.2,9.7l0.1-6.9l-8.5-0.2l0.4-19.8l8.5,0.2l0.3-14.2l5,6.8
		l6.9-5l12.6,17.1l-6.9,5L384.1,474.8"/>
</g>
<g transform="translate(-180.85569499999997 444.9041373) rotate(0)">
	<path id="path3297-6-2-4" class="st0" d="M451.3,34l5,6.9l-6.9,5l9.7,13.2l-6.9-0.1l-0.2,8.5L432.2,67l0.2-8.5l-14.2-0.3l6.9-5
		l-5-6.8l17.1-12.6l5,6.9L451.3,34"/>
</g>
<g transform="translate(869.2893256 -283.69871150000006) rotate(90)">
	<path id="path3297-2" class="st0" d="M384.3,621l-6.9,5l-5-6.9l-13.2,9.7l0.1-6.9l-8.5-0.2l0.4-19.8l8.5,0.2l0.3-14.2l5,6.9l6.9-5
		l12.6,17.1l-6.9,5L384.3,621"/>
</g>
<g transform="translate(-57.06066219999991 968.1047063000001) rotate(270)">
	<path id="path3297-5-8" class="st0" d="M383.9,330.2l-6.9,5l-5-6.9l-13.2,9.7l0.1-6.9l-8.5-0.2l0.4-19.8l8.5,0.2l0.3-14.2l5,6.9
		l6.8-5l12.6,17.1l-6.9,5L383.9,330.2"/>
</g>
<g transform="translate(-342.9780203 564.7916860000001) rotate(270)">
	<path id="path3299-3" class="st0" d="M215,595.7l6.9-5l5,6.9l13.1-9.7l-0.1,7l8.5,0.2l-0.4,19.8l-8.5-0.2l-0.3,14.2l-5-6.9l-6.9,5
		l-12.6-17.1l6.8-5L215,595.7"/>
</g>
<g transform="translate(923.3345063 206.39500779999995) rotate(90)">
	<path id="path3293" class="st0" d="M176.6,677.2h8.5v-8.5h16.4l-4.2-5.5l6.8-5.1l-12-15.8l-6.8,5.2l-8.6-11.3v8.5h-8.5V666h8.5
		L176.6,677.2"/>
</g>
<g transform="translate(295.5459975 366.56314039999995) rotate(90)">
	<path id="path3297-6-2" class="st0" d="M383.4,41.1l-6.9,5l-5-6.9l-13.2,9.7l0.1-7l-8.5-0.2l0.4-19.7l8.5,0.2L359.1,8l5,6.9l6.9-5
		L383.5,27l-6.8,5L383.4,41.1"/>
</g>
<g transform="translate(298.34441039999996 636.9730388) rotate(90)">
	<path id="path3297-6" class="st0" d="M177,41.1l-6.8,5l-5-6.9L152,48.9l0.1-7l-8.5-0.2L144,22l8.5,0.2L152.7,8l5,6.9l6.8-5
		L177.2,27l-6.9,5L177,41.1"/>
</g>
</svg>
